<svg width="16" height="16" viewBox="0 0 16 16" fill="none" xmlns="http://www.w3.org/2000/svg">
<path d="M12.5715 16C11.8933 16 11.2305 15.7989 10.6666 15.4222C10.1028 15.0454 9.66337 14.51 9.40387 13.8835C9.14437 13.257 9.07647 12.5676 9.20876 11.9025C9.34106 11.2375 9.6676 10.6266 10.1471 10.1471C10.6266 9.66757 11.2375 9.34103 11.9026 9.20873C12.5677 9.07644 13.257 9.14434 13.8835 9.40384C14.51 9.66334 15.0455 10.1028 15.4222 10.6666C15.7989 11.2304 16 11.8933 16 12.5714C15.999 13.4804 15.6375 14.3519 14.9947 14.9947C14.3519 15.6374 13.4805 15.999 12.5715 16ZM12.5715 10.2857C12.1194 10.2857 11.6775 10.4198 11.3016 10.6709C10.9257 10.9221 10.6327 11.2791 10.4597 11.6967C10.2867 12.1144 10.2415 12.574 10.3297 13.0173C10.4179 13.4607 10.6355 13.868 10.9552 14.1877C11.2749 14.5073 11.6822 14.725 12.1255 14.8132C12.5689 14.9014 13.0285 14.8562 13.4462 14.6831C13.8638 14.5101 14.2208 14.2172 14.472 13.8413C14.7231 13.4654 14.8572 13.0235 14.8572 12.5714C14.8565 11.9654 14.6155 11.3844 14.1869 10.9559C13.7584 10.5274 13.1775 10.2864 12.5715 10.2857Z" fill="#07D000"/>
<path d="M5.7143 7.76573L4.2343 6.28573L3.42859 7.09144L5.7143 9.37715L9.7143 5.37716L8.90859 4.57144L5.7143 7.76573Z" fill="black"/>
<path d="M6.85714 12.5714C5.72697 12.5714 4.62217 12.2363 3.68246 11.6084C2.74275 10.9805 2.01033 10.0881 1.57783 9.04391C1.14533 7.99976 1.03217 6.85081 1.25266 5.74234C1.47315 4.63388 2.01738 3.61569 2.81654 2.81654C3.61569 2.01738 4.63388 1.47315 5.74234 1.25266C6.85081 1.03217 7.99976 1.14533 9.04391 1.57783C10.0881 2.01033 10.9805 2.74275 11.6084 3.68246C12.2363 4.62217 12.5714 5.72697 12.5714 6.85714H13.7143C13.7143 5.50093 13.3121 4.17517 12.5586 3.04752C11.8052 1.91987 10.7342 1.04097 9.48126 0.521972C8.22828 0.0029711 6.84954 -0.132823 5.51938 0.131761C4.18923 0.396345 2.9674 1.04942 2.00841 2.00841C1.04942 2.9674 0.396345 4.18923 0.131761 5.51938C-0.132823 6.84954 0.0029711 8.22828 0.521972 9.48126C1.04097 10.7342 1.91987 11.8052 3.04752 12.5586C4.17517 13.3121 5.50093 13.7143 6.85714 13.7143V12.5714Z" fill="black"/>
</svg>
