<svg width="26" height="26" viewBox="0 0 26 26" fill="none" xmlns="http://www.w3.org/2000/svg">
<path fill-rule="evenodd" clip-rule="evenodd" d="M0 8.66675C0 5.47577 2.5868 2.88898 5.77778 2.88898H20.2222C23.4131 2.88898 26 5.47577 26 8.66675V20.2223C26 23.4132 23.4131 26.0001 20.2222 26.0001H5.77778C2.5868 26.0001 0 23.4132 0 20.2223V8.66675ZM5.77778 5.77787C4.18229 5.77787 2.88889 7.07126 2.88889 8.66675V20.2223C2.88889 21.8178 4.18229 23.1112 5.77778 23.1112H20.2222C21.8178 23.1112 23.1111 21.8178 23.1111 20.2223V8.66675C23.1111 7.07126 21.8178 5.77787 20.2222 5.77787H5.77778Z" fill="white"/>
<path fill-rule="evenodd" clip-rule="evenodd" d="M7.22228 0C8.02001 0 8.66672 0.646707 8.66672 1.44444V4.33333C8.66672 5.13107 8.02001 5.77778 7.22228 5.77778C6.42454 5.77778 5.77783 5.13107 5.77783 4.33333V1.44444C5.77783 0.646707 6.42454 0 7.22228 0Z" fill="white"/>
<path fill-rule="evenodd" clip-rule="evenodd" d="M18.7778 0C19.5756 0 20.2223 0.646707 20.2223 1.44444V4.33333C20.2223 5.13107 19.5756 5.77778 18.7778 5.77778C17.9801 5.77778 17.3334 5.13107 17.3334 4.33333V1.44444C17.3334 0.646707 17.9801 0 18.7778 0Z" fill="white"/>
<path d="M8.66672 10.1111C8.66672 10.9089 8.02001 11.5556 7.22228 11.5556C6.42454 11.5556 5.77783 10.9089 5.77783 10.1111C5.77783 9.31339 6.42454 8.66669 7.22228 8.66669C8.02001 8.66669 8.66672 9.31339 8.66672 10.1111Z" fill="white"/>
<path d="M14.4444 10.1111C14.4444 10.9089 13.7978 11.5556 13 11.5556C12.2022 11.5556 11.5555 10.9089 11.5555 10.1111C11.5555 9.31339 12.2022 8.66669 13 8.66669C13.7978 8.66669 14.4444 9.31339 14.4444 10.1111Z" fill="white"/>
<path d="M20.2223 10.1111C20.2223 10.9089 19.5756 11.5556 18.7778 11.5556C17.9801 11.5556 17.3334 10.9089 17.3334 10.1111C17.3334 9.31339 17.9801 8.66669 18.7778 8.66669C19.5756 8.66669 20.2223 9.31339 20.2223 10.1111Z" fill="white"/>
<path d="M8.66672 15.8888C8.66672 16.6865 8.02001 17.3332 7.22228 17.3332C6.42454 17.3332 5.77783 16.6865 5.77783 15.8888C5.77783 15.091 6.42454 14.4443 7.22228 14.4443C8.02001 14.4443 8.66672 15.091 8.66672 15.8888Z" fill="white"/>
</svg>
