<svg width="16" height="16" viewBox="0 0 16 16" fill="none" xmlns="http://www.w3.org/2000/svg">
<path d="M0.79958 1.59861C0.357626 1.60017 0.000656662 1.95973 0.00235589 2.40162V15.1966C0.000656662 15.6385 0.357626 15.998 0.79958 15.9996H15.1969C15.6411 16.0013 16.0017 15.6408 16 15.1966V2.40162C16.0017 1.95742 15.6411 1.5969 15.1969 1.59861C10.3997 1.59979 5.59985 1.59861 0.79958 1.59861Z" fill="#87AADE"/>
<path d="M3.19718 7.99904C2.15822 7.95887 2.10994 9.55064 3.19718 9.59915H4.79753C5.85226 9.62328 5.88247 8.02655 4.79753 7.99904H3.19718Z" fill="#3771C8"/>
<path d="M7.20101 7.99903C6.17064 7.93816 6.09415 9.5177 7.20101 9.59914H8.80136C9.89099 9.54893 9.8411 7.95768 8.80136 7.99903H7.20101Z" fill="#3771C8"/>
<path d="M11.1989 7.99904C10.1453 7.97833 10.1213 9.57615 11.1989 9.59915H12.7993C13.8785 9.57614 13.8545 7.97833 12.7993 7.99904H11.1989Z" fill="#3771C8"/>
<path d="M3.19717 11.1993C2.14582 11.1781 2.12253 12.7759 3.19717 12.7994H4.79752C5.85186 12.8231 5.88286 11.2265 4.79752 11.1993H3.19717Z" fill="#3771C8"/>
<path d="M7.20099 11.1992C6.14457 11.1778 6.12092 12.7757 7.20099 12.7994H8.80134C9.86373 12.801 9.86803 11.2013 8.80134 11.1992H7.20099Z" fill="#3771C8"/>
<path d="M11.1989 11.1993C10.1175 11.2272 10.1491 12.8237 11.1989 12.7994H12.7993C13.8776 12.7771 13.8554 11.179 12.7993 11.1993H11.1989Z" fill="#3771C8"/>
<path d="M0 7.1988C5.59986 7.1988 11.2103 7.20249 15.9996 7.19882C15.9996 5.59911 15.9996 3.99936 15.9996 2.40123C16.0013 1.95705 15.6407 1.59655 15.1965 1.59824C10.2214 1.59824 5.59986 1.59984 0.799982 1.59824C0.358181 1.6 0.00144212 1.95949 0.00312623 2.40123C0.00184425 3.98159 0 4.79922 0 7.1988Z" fill="#3771C8"/>
<path d="M11.1989 0.801491V4.00171C11.2003 5.06528 12.8003 5.06481 12.7993 4.00171V0.801491C12.8156 -0.257667 11.217 -0.276537 11.1989 0.801491Z" fill="#214478"/>
<path d="M3.19717 0.801487V4.00171C3.17781 5.05145 4.77546 5.0787 4.79752 4.00171V0.801487C4.82231 -0.254246 3.22452 -0.280001 3.19717 0.801487Z" fill="#214478"/>
</svg>
