<svg width="26" height="26" viewBox="0 0 26 26" fill="none" xmlns="http://www.w3.org/2000/svg">
<g clip-path="url(#clip0_544_253)">
<path d="M11.7812 6.09375C11.7812 5.41836 12.3246 4.875 13 4.875C13.6754 4.875 14.2188 5.41836 14.2188 6.09375V12.35L18.5504 15.2344C19.109 15.6102 19.2613 16.3668 18.8449 16.9254C18.5148 17.484 17.7582 17.6363 17.1996 17.2199L12.3246 13.9699C11.9844 13.7871 11.7812 13.4062 11.7812 12.9543V6.09375ZM13 0C20.1805 0 26 5.81953 26 13C26 20.1805 20.1805 26 13 26C5.81953 26 0 20.1805 0 13C0 5.81953 5.81953 0 13 0ZM2.4375 13C2.4375 18.8348 7.16523 23.5625 13 23.5625C18.8348 23.5625 23.5625 18.8348 23.5625 13C23.5625 7.16523 18.8348 2.4375 13 2.4375C7.16523 2.4375 2.4375 7.16523 2.4375 13Z" fill="white"/>
</g>
<defs>
<clipPath id="clip0_544_253">
<rect width="26" height="26" fill="white"/>
</clipPath>
</defs>
</svg>
