<svg width="16" height="13" viewBox="0 0 16 13" fill="none" xmlns="http://www.w3.org/2000/svg">
<path d="M15.8329 1.67014L15.1983 1.03548L9.31936 6.91439C8.5845 7.64926 7.34859 7.64926 6.61373 6.91439L0.734815 1.06888L0.100159 1.70354L4.47594 6.07932L0.100159 10.4551L0.734815 11.0898L5.1106 6.71397L5.97907 7.58245C6.51352 8.1169 7.21498 8.41752 7.94984 8.41752C8.68471 8.41752 9.38617 8.1169 9.92062 7.58245L10.7891 6.71397L15.1649 11.0898L15.7995 10.4551L11.4237 6.07932L15.8329 1.67014Z" fill="#374151"/>
<path d="M14.5971 12.2255H1.40292C0.634657 12.2255 0 11.5908 0 10.8225V1.40292C0 0.634654 0.634657 0 1.40292 0H14.5971C15.3653 0 16 0.634654 16 1.40292V10.8225C16 11.5908 15.3653 12.2255 14.5971 12.2255ZM1.36952 0.901878C1.1023 0.901878 0.90188 1.10229 0.90188 1.36952V10.7891C0.90188 11.0564 1.1023 11.2568 1.36952 11.2568H14.5637C14.8309 11.2568 15.0313 11.0564 15.0313 10.7891V1.36952C15.0313 1.10229 14.8309 0.901878 14.5637 0.901878H1.36952Z" fill="#374151"/>
</svg>
