<svg width="12" height="16" viewBox="0 0 12 16" fill="none" xmlns="http://www.w3.org/2000/svg">
<path d="M10.1381 4.74347C10.1381 7.16853 8.18496 9.13365 5.77529 9.13365C3.36703 9.13365 1.41464 7.16853 1.41464 4.74347C1.41464 2.31947 3.36703 0.353638 5.77529 0.353638C8.18496 0.353461 10.1381 2.31947 10.1381 4.74347Z" fill="#E0F1F8"/>
<path d="M5.78254 9.66859C3.13326 9.66859 0.977692 7.49976 0.977692 4.83403C0.977692 2.16866 3.13308 0 5.78254 0C8.43305 0 10.5895 2.16866 10.5895 4.83403C10.5895 7.49993 8.43323 9.66859 5.78254 9.66859ZM5.78254 0.888753C3.6229 0.888753 1.86644 2.65848 1.86644 4.83421C1.86644 7.00993 3.62308 8.78001 5.78254 8.78001C7.94323 8.78001 9.70075 7.00976 9.70075 4.83421C9.70075 2.65865 7.94323 0.888753 5.78254 0.888753Z" fill="#454B53"/>
<path d="M11.192 14.4591C10.9465 14.4591 10.7476 14.2602 10.7476 14.0148V10.5563C10.7476 9.44634 10.1367 8.66191 8.8801 8.15865C8.65217 8.06741 8.54165 7.80888 8.63289 7.58095C8.72396 7.35336 8.98249 7.24214 9.21042 7.33374C11.2153 8.13673 11.6364 9.52927 11.6364 10.5563V14.0149C11.6364 14.2602 11.4374 14.4591 11.192 14.4591Z" fill="#454B53"/>
<path d="M0.444376 14.4586C0.198934 14.4586 0 14.2597 0 14.0142V10.5563C0 9.08558 0.813421 7.9719 2.35167 7.33584C2.57855 7.24212 2.83831 7.34998 2.93203 7.5765C3.02575 7.8032 2.91806 8.06314 2.69119 8.15686C1.4783 8.65835 0.888751 9.44331 0.888751 10.5563V14.0144C0.888751 14.2597 0.689817 14.4586 0.444376 14.4586Z" fill="#454B53"/>
<path d="M7.34999 14.3298L5.81881 15.5556L4.28604 14.3298L5.25808 9.59378H5.81545H6.36363L7.34999 14.3298Z" fill="#9ABFDA"/>
<path d="M5.81879 16C5.72047 16 5.62233 15.9675 5.54116 15.9026L4.00839 14.6766C3.87825 14.5723 3.81724 14.4039 3.85066 14.2404L4.8227 9.50431C4.86514 9.29759 5.0471 9.14923 5.25788 9.14923H6.3636C6.57403 9.14923 6.75581 9.29688 6.79861 9.50307L7.78479 14.2391C7.81874 14.4029 7.75809 14.5719 7.62741 14.6764L6.09641 15.9024C6.01542 15.9675 5.91693 16 5.81879 16ZM4.77584 14.1527L5.81843 14.9868L6.85944 14.1535L6.00234 10.0382H5.62038L4.77584 14.1527Z" fill="#454B53"/>
</svg>
