<svg width="26" height="33" viewBox="0 0 26 33" fill="none" xmlns="http://www.w3.org/2000/svg">
<path d="M11.4066 0.657227C12.9907 0.342114 14.633 0.503955 16.1253 1.12207C17.6175 1.7402 18.893 2.78694 19.7903 4.12988C20.6876 5.47283 21.1663 7.05189 21.1663 8.66699C21.1662 10.8328 20.3062 12.9099 18.7747 14.4414C17.2432 15.9729 15.1661 16.8329 13.0003 16.833C11.3852 16.833 9.80614 16.3543 8.4632 15.457C7.12026 14.5597 6.07351 13.2842 5.45538 11.792C4.83727 10.2997 4.67543 8.65742 4.99054 7.07324C5.30568 5.48916 6.08284 4.03367 7.22491 2.8916C8.36699 1.74953 9.82247 0.97237 11.4066 0.657227ZM13.0003 1.66699C11.6158 1.66699 10.2618 2.07751 9.11066 2.84668C7.95969 3.61584 7.06229 4.70933 6.53253 5.98828C6.00289 7.2672 5.86407 8.67456 6.13409 10.0322C6.40418 11.39 7.07123 12.6373 8.05011 13.6162C9.02902 14.5951 10.2763 15.2621 11.6341 15.5322C12.992 15.8023 14.3999 15.6636 15.679 15.1338C16.958 14.604 18.0515 13.7067 18.8206 12.5557C19.5897 11.4046 20.0002 10.0513 20.0003 8.66699C20.0003 6.81048 19.2623 5.02955 17.9495 3.7168C16.6369 2.40422 14.8566 1.66708 13.0003 1.66699Z" fill="white" stroke="white"/>
<path d="M24.833 22.8015L24.3486 22.5105L19.4629 19.574L19.4121 19.5447L19.3594 19.5203L19.3311 19.4998C19.3234 19.4911 19.318 19.4805 19.3145 19.4695C19.311 19.4585 19.3093 19.4468 19.3105 19.4353C19.3118 19.4237 19.3154 19.4122 19.3213 19.4021C19.3271 19.3921 19.3353 19.3835 19.3447 19.3767C19.3542 19.3699 19.3655 19.3654 19.377 19.363C19.3882 19.3607 19.3999 19.3606 19.4111 19.363C19.4224 19.3654 19.4331 19.37 19.4424 19.3767L19.4785 19.4031L19.5166 19.4255L24.9326 22.6755L24.9453 22.6833L24.958 22.6902C24.9706 22.6973 24.9809 22.708 24.9883 22.7205C24.9956 22.7329 24.9998 22.747 25 22.7615V27.0837C24.9999 28.2549 24.5342 29.3786 23.7061 30.2068C22.8778 31.0348 21.7542 31.4998 20.583 31.4998H5.41699C4.2458 31.4998 3.12219 31.0348 2.29395 30.2068C1.46577 29.3786 1.00012 28.2549 1 27.0837V22.7498L1.01074 22.7087C1.0179 22.6962 1.02859 22.6858 1.04102 22.6785L1.04492 22.6755L6.37988 19.4734C6.39287 19.4712 6.40621 19.4722 6.41895 19.4763C6.43857 19.4826 6.45545 19.4956 6.46582 19.5134C6.47619 19.5313 6.47984 19.5528 6.47559 19.573C6.47215 19.5891 6.46178 19.6017 6.4502 19.613L1.65039 22.5115L1.16699 22.8035V27.0837C1.16711 28.2107 1.61427 29.2917 2.41113 30.0886C3.20816 30.8857 4.28982 31.3337 5.41699 31.3337H20.583C21.7102 31.3337 22.7918 30.8857 23.5889 30.0886C24.3857 29.2917 24.8329 28.2107 24.833 27.0837V22.8015Z" fill="white" stroke="white" stroke-width="2"/>
</svg>
