<svg width="16" height="16" viewBox="0 0 16 16" fill="none" xmlns="http://www.w3.org/2000/svg">
<g clip-path="url(#clip0_32_1043)">
<path fill-rule="evenodd" clip-rule="evenodd" d="M8.48478 0.315684L10.5382 4.67534C10.6137 4.84002 10.7663 4.95621 10.9452 4.98513L15.5368 5.68423C15.7444 5.72448 15.913 5.87563 15.9756 6.07759C16.0382 6.27955 15.9847 6.49958 15.8363 6.65021L12.5138 10.0437C12.3855 10.1767 12.3278 10.3627 12.3583 10.545L13.1427 15.3367C13.1855 15.5427 13.1062 15.7549 12.9388 15.8824C12.7714 16.0098 12.5457 16.0298 12.3585 15.9337L8.25162 13.6713C8.09517 13.5846 7.90507 13.5846 7.74862 13.6713L3.64175 15.9337C3.45458 16.0298 3.22888 16.0098 3.06148 15.8824C2.89408 15.7549 2.81476 15.5427 2.85755 15.3367L3.64189 10.545C3.67241 10.3627 3.61475 10.1767 3.48645 10.0437L0.163929 6.65021C0.0155509 6.49958 -0.0379633 6.27955 0.0246605 6.0776C0.0872844 5.87565 0.255897 5.7245 0.463468 5.68425L5.05508 4.98513C5.23391 4.95622 5.38655 4.84002 5.46202 4.67534L7.51546 0.315684C7.60027 0.123787 7.79032 0 8.00012 0C8.20992 0 8.39997 0.123787 8.48478 0.315684Z" fill="#F6AB27"/>
<path fill-rule="evenodd" clip-rule="evenodd" d="M10.0386 3.61655C8.71424 4.3247 7.49128 5.20804 6.40277 6.24275C5.24263 7.35339 4.25846 8.63429 3.48415 10.0414L0.162793 6.65103C0.0144222 6.50031 -0.038948 6.28016 0.0239307 6.07822C0.0868094 5.87629 0.255729 5.72536 0.463439 5.68551L5.05382 4.98482C5.23241 4.95516 5.38503 4.83966 5.4621 4.67586L7.51449 0.314477C7.60023 0.123141 7.79034 0 8.00001 0C8.20968 0 8.39979 0.123141 8.48553 0.314477L10.0386 3.61655Z" fill="#F4CD1E"/>
</g>
<defs>
<clipPath id="clip0_32_1043">
<rect width="16" height="16" fill="white"/>
</clipPath>
</defs>
</svg>
