<svg width="16" height="18" viewBox="0 0 16 18" fill="none" xmlns="http://www.w3.org/2000/svg">
<path d="M15.7061 14.0998L12.0551 10.3654C11.8825 10.1889 11.6558 10.0948 11.4227 10.1029C11.1896 10.111 10.9684 10.2207 10.8058 10.4089L8.65655 12.8954C8.13922 12.7843 7.09917 12.4195 6.02859 11.2182C4.958 10.0128 4.63377 8.8397 4.53767 8.26175L6.7462 5.84284C6.91363 5.66009 7.01128 5.41122 7.01848 5.14891C7.02569 4.88659 6.94189 4.63141 6.78482 4.43737L3.46619 0.331101C3.30905 0.136454 3.09065 0.0183856 2.85738 0.00197209C2.62411 -0.0144414 2.39434 0.0720926 2.21687 0.243196L0.2679 2.12355C0.112621 2.29887 0.0199401 2.53221 0.00743838 2.7793C-0.00603375 3.0319 -0.262902 9.01551 3.86137 13.6573C7.45933 17.704 11.9662 18 13.2074 18C13.3889 18 13.5002 17.9939 13.5299 17.9919C13.7495 17.9781 13.9568 17.8734 14.1119 17.6979L15.7824 15.5043C15.9351 15.3053 16.0126 15.047 15.9983 14.7846C15.9841 14.5222 15.8792 14.2765 15.7061 14.0998Z" fill="#374151"/>
</svg>
