<svg width="14" height="14" viewBox="0 0 14 14" fill="none" xmlns="http://www.w3.org/2000/svg">
<path d="M6.00546 6.94734C6.00546 7.55454 6.49816 8.04695 7.10508 8.04695C7.53151 8.04695 7.89694 7.80185 8.07937 7.44724L8.08242 7.45001L10.0898 3.82843L6.56581 5.9894L6.56913 5.99273C6.23448 6.18154 6.00546 6.53588 6.00546 6.94734Z" fill="white"/>
<path d="M11.5352 1.70765C10.4084 0.722818 8.95247 0.0939914 7.28891 0V1.67105C8.67521 1.75922 9.49202 2.19951 10.3122 2.88656L11.5352 1.70765Z" fill="white"/>
<path d="M12.3201 6.42635H13.9892C13.8772 4.76278 13.2265 3.39589 12.2161 2.27576L11.0353 3.4494C11.7467 4.26455 12.2147 5.31731 12.3201 6.42635Z" fill="white"/>
<path d="M12.3278 7.25803C12.1512 10.0306 9.85412 12.2296 7.04824 12.2296C4.1273 12.2296 1.66356 9.86068 1.66356 6.94002C1.66356 4.15965 3.96178 1.88472 6.45712 1.67123V0.000183105C2.85273 0.216169 0 3.24885 0 6.94723C0 10.7853 3.16632 13.8932 7.00444 13.8932C10.7286 13.8932 13.8223 10.8624 14 7.25803H12.3278Z" fill="white"/>
</svg>
