<svg width="16" height="14" viewBox="0 0 16 14" fill="none" xmlns="http://www.w3.org/2000/svg">
<path d="M4.17002 2.86587C4.02946 2.86587 3.88617 2.87426 3.75348 2.90752C3.67577 2.92725 3.59912 2.9605 3.52434 2.99083C3.49542 3.00263 3.46943 3.01909 3.44104 3.03248C3.42924 3.03795 3.43197 3.04755 3.42024 3.05328C3.34973 3.0882 3.27842 3.11353 3.21197 3.15745C3.20264 3.16351 3.17958 3.17204 3.17031 3.17831C3.15079 3.19164 3.14779 3.20577 3.12866 3.2199C3.07428 3.25895 3.01309 3.30054 2.96204 3.34493C2.91546 3.38678 2.88067 3.44423 2.83708 3.49068C2.68966 3.64191 2.54543 3.80299 2.44133 3.99054C2.26258 4.30398 2.14355 4.64734 2.0873 5.0111C2.06017 5.00537 2.02778 5.00324 2.00399 5.0111C1.82184 5.07029 1.78125 5.41712 1.89989 5.78168C1.96947 5.99562 2.07337 6.16557 2.1914 6.26087C2.35002 6.87736 2.69106 7.39654 3.12866 7.71845V8.07234L2.77456 8.40558L2.0873 8.76014C1.5264 9.03806 0.960562 9.31531 0.400326 9.59323C0.0898167 9.78051 -0.025023 10.1437 0.004575 10.489C0.0190254 10.7056 -0.0653579 10.9895 0.150366 11.1341C0.355306 11.2394 0.615156 11.1794 0.837631 11.1968H2.04561C2.16671 11.0381 2.31806 10.8915 2.50381 10.7802L2.5246 10.7596H2.54546C3.48586 10.2977 4.41432 9.8265 5.35711 9.36396L6.44012 8.84345C6.37874 8.81279 6.31403 8.79013 6.25271 8.76014L5.56545 8.40558L5.21135 8.07234V7.71845C5.48827 7.51517 5.72233 7.22059 5.89868 6.88536C5.66109 6.50147 5.47821 6.06026 5.35711 5.5944C5.1559 5.38779 4.96729 5.15839 4.85725 4.82363C4.74402 4.47899 4.7117 4.1229 4.75315 3.82392C4.78987 3.55906 4.9171 3.30834 5.1697 3.17831C5.09532 3.12999 4.99855 3.09233 4.91977 3.05328C4.88005 3.03382 4.85645 3.00736 4.81567 2.99083C4.78667 2.97903 4.76182 2.98023 4.73236 2.96997C4.64378 2.93931 4.55368 2.90239 4.46157 2.88666C4.45451 2.88559 4.44784 2.88786 4.44071 2.88666C4.35427 2.87306 4.2586 2.86487 4.17002 2.86587Z" fill="#2C3E50"/>
<path d="M9.00129 0C8.76536 0 8.53276 -1.62723e-05 8.30949 0.0666309C8.17953 0.0666309 8.0529 0.133327 7.9276 0.199974C7.87895 0.199974 7.82963 0.199958 7.78165 0.266605H7.727C7.60903 0.333252 7.49306 0.399932 7.3811 0.466579H7.32645C7.29379 0.533226 7.2678 0.533194 7.23581 0.599841C7.1445 0.666488 7.04853 0.66652 6.96255 0.799815C6.88458 0.866462 6.81726 0.93306 6.74395 0.999707C6.49662 1.2663 6.28195 1.53292 6.10714 1.86615C5.80689 2.33268 5.58276 2.93251 5.48819 3.53233H5.36076C5.05485 3.66563 4.97953 4.19882 5.17874 4.79864C5.29564 5.19853 5.49019 5.46508 5.68846 5.59838C5.95478 6.66473 6.51895 7.53111 7.2538 8.06429V8.66413L6.67131 9.19734L5.50638 9.79718C4.56432 10.2637 3.62586 10.7302 2.68487 11.1968C2.16336 11.4633 1.96162 12.1298 2.01134 12.663C2.0356 13.0628 1.90383 13.5294 2.26613 13.7293C2.61036 13.9292 3.02104 13.796 3.3948 13.796H6.67131H11.3313C12.7102 13.796 14.0851 13.8627 15.4641 13.796C15.9113 13.796 16.0352 13.3294 15.9919 12.9296C15.9999 12.3964 16.0319 11.7965 15.6094 11.3966C15.2648 11.0634 14.7743 10.9301 14.3537 10.6635C13.7359 10.397 13.1141 10.0638 12.4969 9.79718L11.3313 9.19734L10.7488 8.66413V8.06429C11.4839 7.53111 12.0484 6.66473 12.3143 5.59838C12.5129 5.46508 12.7075 5.19853 12.8242 4.79864C13.0234 4.19882 12.9481 3.66563 12.6422 3.53233H12.5149C12.4203 2.93251 12.1964 2.33268 11.8958 1.86615C11.7212 1.53292 11.5066 1.2663 11.2586 0.999707C11.1853 0.93306 11.1187 0.866462 11.04 0.799815H11.022C10.7941 0.599873 10.5402 0.399899 10.2756 0.266605C10.2089 0.266605 10.1443 0.199974 10.0756 0.199974C10.027 0.199974 9.97967 0.133343 9.92969 0.133343C9.78106 0.066696 9.62977 0.0666472 9.47448 0H9.4385H9.00129Z" fill="#34495E"/>
</svg>
